<svg xmlns="http://www.w3.org/2000/svg" xmlns:xlink="http://www.w3.org/1999/xlink" width="217.433" height="43.75" viewBox="0 0 217.433 43.75">
  <defs>
    <linearGradient id="linear-gradient" x1="0.005" y1="0.945" x2="1.561" y2="-0.455" gradientUnits="objectBoundingBox">
      <stop offset="0" stop-color="#8158a4"/>
      <stop offset="0.5" stop-color="#f1607a"/>
      <stop offset="1" stop-color="#c1282d"/>
    </linearGradient>
    <linearGradient id="linear-gradient-2" x1="-6.2" y1="6.53" x2="2.2" y2="-1.031" xlink:href="#linear-gradient"/>
    <linearGradient id="linear-gradient-3" x1="-0.326" y1="1.036" x2="1.307" y2="-0.024" xlink:href="#linear-gradient"/>
  </defs>
  <g id="aipaygo_logo-06" transform="translate(-87.43 -96.21)">
    <path id="Path_12" data-name="Path 12" d="M101.573,157.776a14.143,14.143,0,1,1,14.143-14.143A14.143,14.143,0,0,1,101.573,157.776Zm0-23.638a9.5,9.5,0,1,0,9.5,9.5A9.5,9.5,0,0,0,101.573,134.138Z" transform="translate(0 -23.236)" fill="url(#linear-gradient)"/>
    <circle id="Ellipse_2" data-name="Ellipse 2" cx="2.62" cy="2.62" r="2.62" transform="translate(120.128 98.842)" fill="url(#linear-gradient-2)"/>
    <path id="Path_13" data-name="Path 13" d="M147.492,133.593a2.324,2.324,0,0,1-2.324-2.324V120.784c.118-5.867-1.624-10.808-5.04-14.294-3.561-3.622-8.864-5.632-14.934-5.632a2.324,2.324,0,1,1,0-4.648c7.328,0,13.811,2.5,18.254,7.026,4.3,4.391,6.507,10.482,6.368,17.617v10.416A2.324,2.324,0,0,1,147.492,133.593Z" transform="translate(-24.744 0)" fill="url(#linear-gradient-3)"/>
    <path id="Path_14" data-name="Path 14" d="M757.5,158.146a10.71,10.71,0,1,0-19.745,8.306,10.908,10.908,0,0,0,5.707,5.707,10.7,10.7,0,0,0,11.729-2.306,10.918,10.918,0,0,0,2.306-3.4,10.759,10.759,0,0,0,0-8.306Zm-3.673,6.767a6.726,6.726,0,1,1,0-5.249,6.715,6.715,0,0,1,0,5.249Z" transform="translate(-453.464 -38.657)" fill="#fff"/>
    <path id="Path_15" data-name="Path 15" d="M660.727,144.646v7.545a2.116,2.116,0,0,1-.091.6,2.086,2.086,0,0,1-.6.93h0c-.051.039-.1.078-.148.115a.45.45,0,0,1-.079.054,16.518,16.518,0,0,1-10.156,3.564c-8.478,0-15.64-6.661-15.64-14.541s7.162-14.487,15.64-14.487a16.6,16.6,0,0,1,7.545,1.832l.13.063a1.881,1.881,0,0,1,.782.887,1.652,1.652,0,0,1,.069.19,1.769,1.769,0,0,1,.078.543,1.808,1.808,0,0,1-.084.552,1.928,1.928,0,0,1-.537.842l-.145.121a1.832,1.832,0,0,1-.872.338h-.051a.122.122,0,0,1-.039,0,.138.138,0,0,1-.048,0,.539.539,0,0,1-.09,0,.6.6,0,0,1-.094,0,.123.123,0,0,1-.045,0h-.036a.233.233,0,0,1-.069,0,1.787,1.787,0,0,1-.667-.22c-.039-.024-.078-.048-.121-.069a10.989,10.989,0,0,0-5.7-1.627,11.194,11.194,0,0,0-11.046,11.046,10.961,10.961,0,0,0,11.019,10.8,12.262,12.262,0,0,0,5.918-1.3c.284-.148,1.186-.652,1.186-.652v-5.113H652.3a.662.662,0,0,1-.1,0,.154.154,0,0,1-.051,0h-.045a.3.3,0,0,1-.069,0,2,2,0,0,1-1.6-1.228c-.021-.06-.045-.121-.063-.184a1.363,1.363,0,0,1-.039-.16h0a2.093,2.093,0,0,1-.039-.3v-.26a2.212,2.212,0,0,1,.091-.438,1.787,1.787,0,0,1,.063-.193,2,2,0,0,1,1.856-1.225h6.411a2.016,2.016,0,0,1,1.853,1.207c.03.069.048.145.075.205A2.038,2.038,0,0,1,660.727,144.646Z" transform="translate(-381.615 -22.496)" fill="#fff"/>
    <path id="Path_16" data-name="Path 16" d="M266.72,155.9a2.279,2.279,0,0,1-.094.643,2.155,2.155,0,0,1-1.9,1.509H264.4a2.155,2.155,0,0,1-1.841-1.334c-.024-.063-.048-.13-.069-.193l-7.328-20.629a1.457,1.457,0,0,0-1.207-.975h-.178a1.4,1.4,0,0,0-1.295,1.05l-7.259,20.572a2.155,2.155,0,0,1-1.953,1.509h-.22A2.152,2.152,0,0,1,241,155.894a2.076,2.076,0,0,1,.1-.631.985.985,0,0,1,.069-.205l7.512-21.091a4.8,4.8,0,0,1,1.971-2.6,6.579,6.579,0,0,1,6.447,0,4.829,4.829,0,0,1,1.947,2.593l7.515,21.1c.03.069.054.145.078.214A2.173,2.173,0,0,1,266.72,155.9Z" transform="translate(-107.221 -23.958)" fill="#fff"/>
    <path id="Path_17" data-name="Path 17" d="M418.2,138.435a9.621,9.621,0,0,1-.462,2.991,6.8,6.8,0,0,1-1.455,2.469,7.527,7.527,0,0,1-2.623,1.811,10.216,10.216,0,0,1-4.029.688H403.6a3.078,3.078,0,0,0-2.436,1.15,3.77,3.77,0,0,0-.905,2.493v5.855a2.288,2.288,0,0,1-.094.646,2.17,2.17,0,0,1-1.865,1.509.138.138,0,0,1-.045,0,.186.186,0,0,1-.054,0,1.2,1.2,0,0,1-.22,0,.2.2,0,0,1-.054,0h-.051a2.158,2.158,0,0,1-1.811-1.34c-.024-.063-.051-.13-.069-.193a2.182,2.182,0,0,1-.091-.631v-5.922c0-2.635.727-4.554,2.224-5.885a9.214,9.214,0,0,1,6.3-2.022h5.9a3.4,3.4,0,0,0,2.5-1.05,3.507,3.507,0,0,0,1.011-2.5,3.594,3.594,0,0,0-1-2.514,3.32,3.32,0,0,0-2.469-1.087H398.091a.8.8,0,0,1-.109,0,.2.2,0,0,1-.054,0h-.051a2.158,2.158,0,0,1-1.811-1.34c-.024-.063-.051-.13-.069-.193a2.182,2.182,0,0,1-.091-.631,2.072,2.072,0,0,1,.1-.631,1.141,1.141,0,0,1,.069-.208,2.164,2.164,0,0,1,2.007-1.328h11.55a10.829,10.829,0,0,1,3.963.652,7.364,7.364,0,0,1,2.638,1.7,6.338,6.338,0,0,1,1.479,2.475A9.8,9.8,0,0,1,418.2,138.435Z" transform="translate(-215.37 -23.99)" fill="#fff"/>
    <path id="Path_18" data-name="Path 18" d="M344.932,176.771v6.036a2.283,2.283,0,0,1-.094.646,2.17,2.17,0,0,1-1.865,1.509h-.422a2.158,2.158,0,0,1-1.811-1.34c-.024-.063-.051-.13-.069-.193a2.181,2.181,0,0,1-.091-.631v-13.18a.522.522,0,0,1,.024-.148.266.266,0,0,1,0-.048.522.522,0,0,1,.477-.3.568.568,0,0,1,.223.048C343,169.9,344.932,171.836,344.932,176.771Z" transform="translate(-176.746 -50.905)" fill="#fff"/>
    <path id="Path_19" data-name="Path 19" d="M574.752,159.657v13.769a9.507,9.507,0,0,1-.709,3.646,9.679,9.679,0,0,1-1.956,3.018,9.89,9.89,0,0,1-2.9,2.113,8.525,8.525,0,0,1-1.509.558c-.069.024-.145.039-.22.06a2.076,2.076,0,0,1-1.141-.109l-.193-.094a2,2,0,0,1-.474-.347,2.093,2.093,0,0,1-.362-.492,2.063,2.063,0,0,1-.214-.676v-.558a2.046,2.046,0,0,1,.407-.951.154.154,0,0,1,.036-.045.09.09,0,0,1,.024-.036.219.219,0,0,1,.036-.039l.063-.075.075-.063a.249.249,0,0,1,.039-.036l.036-.03a.378.378,0,0,1,.054-.039,2.02,2.02,0,0,1,.631-.329,1.083,1.083,0,0,1,.121-.036,5.641,5.641,0,0,0,2.375-1.343,5.484,5.484,0,0,0,1.412-2.113,10.422,10.422,0,0,1-1.832.942,9.678,9.678,0,0,1-12.4-5.267,9.5,9.5,0,0,1-.751-3.77v-7.657a1.939,1.939,0,0,1,.094-.589,1.12,1.12,0,0,1,.063-.193,2,2,0,0,1,1.856-1.225,2.026,2.026,0,0,1,1.853,1.208c.024.069.051.144.069.2a2.038,2.038,0,0,1,.091.583v7.675a5.471,5.471,0,0,0,.447,2.2,5.663,5.663,0,0,0,10.437,0,5.471,5.471,0,0,0,.447-2.2v-7.663a1.941,1.941,0,0,1,.094-.589,1.774,1.774,0,0,1,.063-.193,2.019,2.019,0,0,1,3.709,0c.03.069.051.145.075.205A2.033,2.033,0,0,1,574.752,159.657Z" transform="translate(-326.73 -42.896)" fill="#fff"/>
    <path id="Path_20" data-name="Path 20" d="M495.724,159.195c-.024-.069-.051-.145-.078-.22a2.182,2.182,0,0,0-2-1.325h-7.663a9.528,9.528,0,0,0-3.773.752,9.932,9.932,0,0,0-3.072,2.086,9.635,9.635,0,0,0,0,13.687,9.959,9.959,0,0,0,3.072,2.079,9.767,9.767,0,0,0,7.307.091,10.513,10.513,0,0,0,1.953-1.056h0a.748.748,0,0,0,.045.175,1.969,1.969,0,0,0,.069.2A2.188,2.188,0,0,0,493.33,177h.561a2.191,2.191,0,0,0,1.811-1.527,2.293,2.293,0,0,0,.1-.652v-15A2.172,2.172,0,0,0,495.724,159.195Zm-5.734,12.136a5.913,5.913,0,0,1-1.811,1.207,5.638,5.638,0,0,1-4.406,0,5.831,5.831,0,0,1-1.793-1.207,5.735,5.735,0,0,1-1.207-1.811,5.572,5.572,0,0,1,0-4.4,5.734,5.734,0,0,1,1.207-1.811,5.8,5.8,0,0,1,1.793-1.207,5.478,5.478,0,0,1,2.206-.447h5.487v7.008a5.64,5.64,0,0,1-.284.845,5.813,5.813,0,0,1-1.2,1.829Z" transform="translate(-271.5 -42.896)" fill="#fff"/>
    <path id="Path_21" data-name="Path 21" d="M344.932,147.526a2.283,2.283,0,0,1-.094.646,2.17,2.17,0,0,1-1.865,1.509.139.139,0,0,1-.045,0,.183.183,0,0,1-.054,0,1.208,1.208,0,0,1-.22,0,.2.2,0,0,1-.054,0h-.048a2.158,2.158,0,0,1-1.811-1.34c-.024-.063-.051-.13-.069-.193a2.181,2.181,0,0,1-.091-.631,2.076,2.076,0,0,1,.1-.631,1.141,1.141,0,0,1,.069-.208,2.176,2.176,0,0,1,4.008,0c.03.075.054.148.078.22A2.171,2.171,0,0,1,344.932,147.526Z" transform="translate(-176.746 -34.309)" fill="#fff"/>
    <path id="Path_22" data-name="Path 22" d="M372.612,209.406a2.281,2.281,0,0,1-.094.646,2.17,2.17,0,0,1-1.865,1.509.138.138,0,0,1-.045,0,.183.183,0,0,1-.054,0,1.2,1.2,0,0,1-.22,0,.2.2,0,0,1-.054,0h-.048a2.158,2.158,0,0,1-1.811-1.34c-.024-.063-.051-.13-.069-.193a2.182,2.182,0,0,1-.091-.631,2.075,2.075,0,0,1,.1-.631,1.14,1.14,0,0,1,.069-.208,2.176,2.176,0,0,1,4.008,0c.03.075.054.148.078.22A2.169,2.169,0,0,1,372.612,209.406Z" transform="translate(-196.072 -77.513)" fill="#fff"/>
  </g>
</svg>
